<svg width="37" height="37" viewBox="0 0 37 37" fill="none" xmlns="http://www.w3.org/2000/svg">
<path d="M11.84 2.21997C6.5342 2.21997 2.22 6.53417 2.22 11.84V25.16C2.22 30.4658 6.5342 34.78 11.84 34.78H25.16C30.4658 34.78 34.78 30.4658 34.78 25.16V11.84C34.78 6.53417 30.4658 2.21997 25.16 2.21997H11.84ZM27.38 8.13997C28.194 8.13997 28.86 8.80597 28.86 9.61997C28.86 10.434 28.194 11.1 27.38 11.1C26.566 11.1 25.9 10.434 25.9 9.61997C25.9 8.80597 26.566 8.13997 27.38 8.13997ZM18.5 10.36C22.9918 10.36 26.64 14.0082 26.64 18.5C26.64 22.9918 22.9918 26.64 18.5 26.64C14.0082 26.64 10.36 22.9918 10.36 18.5C10.36 14.0082 14.0082 10.36 18.5 10.36ZM18.5 11.84C14.8296 11.84 11.84 14.8296 11.84 18.5C11.84 22.1704 14.8296 25.16 18.5 25.16C22.1704 25.16 25.16 22.1704 25.16 18.5C25.16 14.8296 22.1704 11.84 18.5 11.84Z" fill="white"/>
</svg>
