<svg width="21" height="21" viewBox="0 0 21 21" fill="none" xmlns="http://www.w3.org/2000/svg">
<path d="M18.5 0H2.5C1.1215 0 0 1.1215 0 2.5V18.5C0 19.8785 1.1215 21 2.5 21H18.5C19.8785 21 21 19.8785 21 18.5V2.5C21 1.1215 19.8785 0 18.5 0ZM16.503 9.1615C16.3895 9.172 16.2745 9.179 16.158 9.179C14.8465 9.179 13.694 8.5045 13.0235 7.485C13.0235 10.1595 13.0235 13.2025 13.0235 13.2535C13.0235 15.608 11.1145 17.517 8.76 17.517C6.4055 17.517 4.4965 15.608 4.4965 13.2535C4.4965 10.899 6.4055 8.99 8.76 8.99C8.849 8.99 8.936 8.998 9.0235 9.0035V11.1045C8.936 11.094 8.85 11.078 8.76 11.078C7.558 11.078 6.584 12.052 6.584 13.254C6.584 14.456 7.558 15.43 8.76 15.43C9.962 15.43 11.0235 14.483 11.0235 13.281C11.0235 13.2335 11.0445 3.484 11.0445 3.484H13.0525C13.2415 5.2795 14.691 6.6965 16.503 6.8265V9.1615Z" fill="white"/>
</svg>
