<svg width="37" height="37" viewBox="0 0 37 37" fill="none" xmlns="http://www.w3.org/2000/svg">
<path d="M8.13999 2.95996C5.27915 2.95996 2.95999 5.27912 2.95999 8.13996V28.86C2.95999 31.7208 5.27915 34.04 8.13999 34.04H28.86C31.7208 34.04 34.04 31.7208 34.04 28.86V8.13996C34.04 5.27912 31.7208 2.95996 28.86 2.95996H8.13999ZM9.68359 9.61996H15.5573L19.7285 15.5472L24.79 9.61996H26.64L20.5639 16.7338L28.0564 27.38H22.1841L17.3437 20.5032L11.47 27.38H9.61999L16.5084 19.3166L9.68359 9.61996ZM12.5164 11.1L22.9559 25.9H25.2236L14.7841 11.1H12.5164Z" fill="white"/>
</svg>
