<svg width="37" height="37" viewBox="0 0 37 37" fill="none" xmlns="http://www.w3.org/2000/svg">
<path d="M33.2249 10.73C32.9301 9.10261 31.5252 7.91746 29.8949 7.54746C27.4552 7.03003 22.94 6.66003 18.0549 6.66003C13.1726 6.66003 8.58519 7.03003 6.14261 7.54746C4.51519 7.91746 3.10745 9.02746 2.81261 10.73C2.51488 12.58 2.22003 15.17 2.22003 18.5C2.22003 21.83 2.51488 24.42 2.88488 26.27C3.18261 27.8975 4.58746 29.0826 6.21488 29.4526C8.80488 29.97 13.2449 30.34 18.13 30.34C23.0152 30.34 27.4552 29.97 30.0452 29.4526C31.6726 29.0826 33.0775 27.9726 33.3752 26.27C33.6701 24.42 34.0401 21.7549 34.1152 18.5C33.9649 15.17 33.5949 12.58 33.2249 10.73ZM14.06 23.68V13.32L23.0875 18.5L14.06 23.68Z" fill="white"/>
</svg>
